# xmcd
#
# Track frame offsets: 
#        150
#        15352
#        31655
#        51240
#        69440
#        86175
#        100135
#        115330
#        141282
#        155857
#
# Disc length: 2370 seconds
#
# Revision: 0
# Processed by: cddbd v1.4PL0 Copyright (c) Steve Scherf et al.
# Submitted via: ExactAudioCopy v0.95a3
#
DISCID=8109400a
DTITLE=Tracy Nelson - Tracy Nelson
DYEAR=1974
DGENRE=Alternative Country
TTITLE0=Slow Fall
TTITLE1=Love Has No Pride
TTITLE2=Hold an Old Friend's Hand
TTITLE3=Rock Me In Your Cradle
TTITLE4=It Takes a Lot to Laugh, It Takes a Train to Cry
TTITLE5=After The Fire is Gone
TTITLE6=Lean On Me
TTITLE7=I Wish Someone Would Care
TTITLE8=Lay Me Down Easy
TTITLE9=Down So Low
EXTD=Tracy Nelson, formerly of Mother Earth, first solo album.\nProduc
EXTD=ed by Bob Johnston
EXTT0=By Jack Lee
EXTT1=By Eric Kaz and Elizabeth Titus
EXTT2=By Donna Weiss
EXTT3=By Bob Johnston
EXTT4=By Bob Dylan
EXTT5=By L.E. White\nDuet with Willie Nelson (No relation)
EXTT6=By Bill Withers
EXTT7=By Irma Thomas
EXTT8=By Daniel Moore
EXTT9=By Tracy Nelson
PLAYORDER=
